<svg width="495" height="110" viewBox="0 0 495 110" fill="none" xmlns="http://www.w3.org/2000/svg">
<path d="M60.75 80H51.3551L36.7709 66.0941H15.4712V59.243H43.3847C44.8318 59.243 46.1885 58.9716 47.4547 58.429C48.7209 57.8637 49.8175 57.1062 50.7446 56.1565C51.6943 55.2069 52.4404 54.0989 52.9831 52.8327C53.5258 51.5439 53.7971 50.1759 53.7971 48.7288C53.7971 47.2817 53.5258 45.925 52.9831 44.6588C52.4404 43.3925 51.6943 42.2959 50.7446 41.3688C49.8175 40.4192 48.7209 39.673 47.4547 39.1303C46.1885 38.5877 44.8318 38.3163 43.3847 38.3163H11.5708V80H4.61786V31.3634H43.3847C45.7815 31.3634 48.0313 31.8269 50.1341 32.754C52.2369 33.6584 54.0684 34.9021 55.6286 36.4848C57.2114 38.045 58.455 39.8765 59.3595 41.9793C60.2865 44.0822 60.75 46.332 60.75 48.7288C60.75 50.8994 60.377 52.9571 59.6308 54.9016C58.8846 56.8236 57.8558 58.5533 56.5444 60.0909C55.2329 61.6058 53.6841 62.8721 51.8978 63.8896C50.1341 64.8844 48.2235 65.5515 46.1658 65.8906L60.75 80ZM122.052 80H71.754V31.3634H122.052V38.3163H78.7069V73.0471H122.052V80ZM116.151 59.1751H82.1664V52.2222H116.151V59.1751ZM188.917 48.7288C188.917 51.1256 188.454 53.3867 187.527 55.5121C186.622 57.615 185.379 59.4578 183.796 61.0405C182.236 62.6007 180.404 63.833 178.301 64.7375C176.199 65.6419 173.949 66.0941 171.552 66.0941H143.638V59.243H171.552C172.999 59.243 174.356 58.9716 175.622 58.429C176.888 57.8637 177.985 57.1062 178.912 56.1565C179.862 55.2069 180.608 54.0989 181.15 52.8327C181.693 51.5439 181.964 50.1759 181.964 48.7288C181.964 47.2817 181.693 45.925 181.15 44.6588C180.608 43.3925 179.862 42.2959 178.912 41.3688C177.985 40.4192 176.888 39.673 175.622 39.1303C174.356 38.5877 172.999 38.3163 171.552 38.3163H139.738V80H132.785V31.3634H171.552C173.949 31.3634 176.199 31.8269 178.301 32.754C180.404 33.6584 182.236 34.9021 183.796 36.4848C185.379 38.045 186.622 39.8765 187.527 41.9793C188.454 44.0822 188.917 46.332 188.917 48.7288ZM253.849 80H246.896V66.0941H208.095V59.1751H246.896V38.3163H221.967C219.593 38.3163 217.354 38.7799 215.252 39.7069C213.149 40.6114 211.317 41.855 209.757 43.4378C208.197 44.9979 206.953 46.8294 206.026 48.9323C205.122 51.0351 204.67 53.2849 204.67 55.6817V80H197.717V55.6817C197.717 53.4432 197.999 51.2951 198.565 49.2375C199.152 47.1573 199.966 45.224 201.007 43.4378C202.069 41.6289 203.336 39.9896 204.805 38.5198C206.298 37.0275 207.937 35.75 209.723 34.6873C211.532 33.6245 213.465 32.8105 215.523 32.2452C217.581 31.6574 219.729 31.3634 221.967 31.3634H253.849V80ZM274.553 80H267.6V31.3634H274.553V80ZM344.47 80H335.075L320.491 66.0941H299.191V59.243H327.105C328.552 59.243 329.909 58.9716 331.175 58.429C332.441 57.8637 333.538 57.1062 334.465 56.1565C335.414 55.2069 336.161 54.0989 336.703 52.8327C337.246 51.5439 337.517 50.1759 337.517 48.7288C337.517 47.2817 337.246 45.925 336.703 44.6588C336.161 43.3925 335.414 42.2959 334.465 41.3688C333.538 40.4192 332.441 39.673 331.175 39.1303C329.909 38.5877 328.552 38.3163 327.105 38.3163H295.291V80H288.338V31.3634H327.105C329.502 31.3634 331.751 31.8269 333.854 32.754C335.957 33.6584 337.789 34.9021 339.349 36.4848C340.932 38.045 342.175 39.8765 343.08 41.9793C344.007 44.0822 344.47 46.332 344.47 48.7288C344.47 50.8994 344.097 52.9571 343.351 54.9016C342.605 56.8236 341.576 58.5533 340.265 60.0909C338.953 61.6058 337.404 62.8721 335.618 63.8896C333.854 64.8844 331.944 65.5515 329.886 65.8906L344.47 80ZM413.54 55.6817C413.54 59.0508 413.008 62.2163 411.946 65.1784C410.883 68.1405 409.368 70.7181 407.401 72.9114C405.456 75.1047 403.116 76.8344 400.38 78.1007C397.644 79.3669 394.603 80 391.256 80H375.078C371.709 80 368.645 79.3669 365.887 78.1007C363.128 76.8344 360.765 75.1047 358.798 72.9114C356.853 70.7181 355.35 68.1405 354.287 65.1784C353.224 62.2163 352.693 59.0508 352.693 55.6817C352.693 52.3353 353.224 49.1923 354.287 46.2529C355.35 43.2908 356.853 40.7131 358.798 38.5198C360.765 36.304 363.128 34.5629 365.887 33.2967C368.645 32.0078 371.709 31.3634 375.078 31.3634H391.256C394.603 31.3634 397.644 32.0078 400.38 33.2967C403.116 34.5629 405.456 36.304 407.401 38.5198C409.368 40.7131 410.883 43.2908 411.946 46.2529C413.008 49.1923 413.54 52.3353 413.54 55.6817ZM406.587 55.6817C406.587 53.2849 406.236 51.0351 405.535 48.9323C404.834 46.8294 403.817 44.9979 402.483 43.4378C401.171 41.855 399.566 40.6114 397.667 39.7069C395.79 38.7799 393.653 38.3163 391.256 38.3163H375.078C372.681 38.3163 370.522 38.7799 368.6 39.7069C366.701 40.6114 365.084 41.855 363.75 43.4378C362.438 44.9979 361.421 46.8294 360.697 48.9323C359.996 51.0351 359.646 53.2849 359.646 55.6817C359.646 58.0785 359.996 60.3396 360.697 62.4651C361.421 64.5679 362.438 66.4107 363.75 67.9935C365.084 69.5536 366.701 70.786 368.6 71.6904C370.522 72.5948 372.681 73.0471 375.078 73.0471H391.256C393.653 73.0471 395.79 72.5948 397.667 71.6904C399.566 70.786 401.171 69.5536 402.483 67.9935C403.817 66.4107 404.834 64.5679 405.535 62.4651C406.236 60.3396 406.587 58.0785 406.587 55.6817Z" fill="#597FAD"/>
<path d="M481.787 51.0902C480.763 68.0421 454.368 90 454.368 90C454.368 90 427.746 68.0421 426.836 51.0902C425.925 34.1382 438.208 21.6234 454.482 21.6234C470.756 21.6234 482.811 34.1382 481.787 51.0902Z" fill="url(#paint0_linear_61_767)"/>
<mask id="mask0_61_767" style="mask-type:luminance" maskUnits="userSpaceOnUse" x="426" y="15" width="52" height="59">
<path d="M470.486 32.3048C479.246 41.0651 479.246 55.2685 470.486 64.0288C466.883 67.6318 462.359 69.7531 457.671 70.3923C457.228 70.4526 456.056 73.2809 455.61 73.3148C449.312 73.7946 442.182 68.5808 442.182 68.5808C439.567 70.1733 429.899 71.036 427.522 62.918C425.145 54.7995 429.51 29.5815 433.89 25.2014C437.175 21.9162 446.859 14.91 452.772 15.7602C462.628 17.1774 465.01 26.8294 470.486 32.3048Z" fill="white"/>
</mask>
<g mask="url(#mask0_61_767)">
<path d="M470.486 64.0288C479.247 55.2684 479.247 41.0651 470.486 32.3048C461.726 23.5444 447.523 23.5444 438.762 32.3048C430.002 41.0651 430.002 55.2684 438.762 64.0288C447.523 72.7891 461.726 72.7891 470.486 64.0288Z" fill="white"/>
</g>
<mask id="mask1_61_767" style="mask-type:luminance" maskUnits="userSpaceOnUse" x="423" y="17" width="57" height="54">
<path d="M477.057 48.1668C477.057 60.5558 467.013 70.5993 454.624 70.5993C449.529 70.5993 444.83 68.9003 441.063 66.0378C440.707 65.767 437.878 66.9378 437.539 66.6467C432.747 62.5328 431.391 53.8041 431.391 53.8041C428.416 53.081 420.97 46.8549 425.029 39.4335C429.089 32.0117 450.008 17.2666 456.202 17.2666C460.848 17.2666 472.65 19.1597 476.23 23.9424C482.197 31.9136 477.057 40.4234 477.057 48.1668Z" fill="white"/>
</mask>
<g mask="url(#mask1_61_767)">
<path d="M442.957 51.3981C442.957 51.3981 442 52.9721 441.039 54.5704C440.875 54.0457 440.394 52.0688 440.279 51.6647C439.737 49.7694 438.624 43.1208 438.624 43.1208L435.933 45.0164C435.933 45.0164 436.498 52.8678 436.904 56.1167C437.31 59.3656 437.702 62.8054 439.327 63.4822C440.951 64.1589 442.856 62.4945 443.533 61.6824C444.806 60.401 448.19 54.7659 448.19 54.7659L442.957 51.3981Z" fill="#F4B59C"/>
<path d="M438.623 43.1208C438.623 43.1208 439.736 49.7696 440.278 51.6647C440.393 52.0688 440.874 54.0457 441.038 54.5704C441.999 52.972 442.956 51.3981 442.956 51.3981L448.189 54.7659C448.189 54.7659 444.805 60.401 443.532 61.6824C442.965 62.3627 441.537 63.6405 440.134 63.6405C439.861 63.6405 439.59 63.5923 439.326 63.4823C437.701 62.8056 437.309 59.3658 436.903 56.1169C436.497 52.868 435.932 45.0166 435.932 45.0166L438.623 43.1208ZM439.294 41.5133L438.089 42.3624L435.397 44.258L434.969 44.5599L435.006 45.0829C435.03 45.4045 435.578 52.9958 435.983 56.2318L436.011 56.4607C436.461 60.0657 436.886 63.4706 438.969 64.3387C439.335 64.491 439.727 64.5682 440.134 64.5682C442.199 64.5682 443.925 62.6528 444.219 62.3077C445.549 60.9403 448.635 55.826 448.985 55.2437L449.448 54.4727L448.692 53.9859L443.458 50.6181L442.658 50.103L442.163 50.9161C442.158 50.9253 441.834 51.4576 441.378 52.211C441.284 51.8399 441.21 51.5519 441.17 51.4099C440.649 49.5859 439.549 43.0335 439.538 42.9674L439.294 41.5133Z" fill="#483E2E"/>
</g>
<mask id="mask2_61_767" style="mask-type:luminance" maskUnits="userSpaceOnUse" x="423" y="17" width="57" height="54">
<path d="M477.057 48.1668C477.057 60.5558 467.013 70.5993 454.624 70.5993C449.529 70.5993 444.83 68.9003 441.063 66.0378C440.707 65.767 437.878 66.9378 437.539 66.6467C432.747 62.5328 431.391 53.8041 431.391 53.8041C428.416 53.081 420.97 46.8549 425.029 39.4335C429.089 32.0117 450.008 17.2666 456.202 17.2666C460.848 17.2666 472.65 19.1597 476.23 23.9424C482.197 31.9136 477.057 40.4234 477.057 48.1668Z" fill="white"/>
</mask>
<g mask="url(#mask2_61_767)">
<path d="M434.985 47.6656C434.985 47.6656 435.064 50.4618 434.966 51.0985C434.966 51.0985 437.024 51.1443 438.655 50.6154C440.279 50.0885 440.631 49.2101 440.631 49.2101L438.756 45.6575L434.985 47.6656Z" fill="#483E2E"/>
</g>
<mask id="mask3_61_767" style="mask-type:luminance" maskUnits="userSpaceOnUse" x="423" y="17" width="57" height="54">
<path d="M477.057 48.1668C477.057 60.5558 467.013 70.5993 454.624 70.5993C449.529 70.5993 444.83 68.9003 441.063 66.0378C440.707 65.767 437.878 66.9378 437.539 66.6467C432.747 62.5328 431.391 53.8041 431.391 53.8041C428.416 53.081 420.97 46.8549 425.029 39.4335C429.089 32.0117 450.008 17.2666 456.202 17.2666C460.848 17.2666 472.65 19.1597 476.23 23.9424C482.197 31.9136 477.057 40.4234 477.057 48.1668Z" fill="white"/>
</mask>
<g mask="url(#mask3_61_767)">
<path d="M432.54 46.6219L461 35.84C461.385 35.6994 461.648 35.3721 461.674 35.0066L461.848 32.278C461.888 32.0533 462.028 31.8475 462.244 31.7133L463.031 31.2197C463.111 31.1694 463.2 31.1404 463.291 31.1348L468.02 30.8399C468.144 30.8322 468.201 30.9715 468.1 31.0376L465.548 32.7196C465.177 32.964 464.98 33.3634 465.033 33.7651L465.123 34.4532C465.176 34.8601 465.476 35.2049 465.907 35.3523L466.922 35.7001C467.313 35.8342 467.757 35.7864 468.108 35.5726L470.711 33.985C470.785 33.9402 470.88 34.0003 470.855 34.0756L469.747 37.4141C469.723 37.4717 469.683 37.5188 469.624 37.5478L467.681 38.5609C467.47 38.6671 467.228 38.7042 466.995 38.6553L463.796 38.018C463.622 37.9875 463.455 37.9887 463.29 38.0322C463.218 38.0453 463.155 38.0672 463.09 38.0945L434.181 50.0649C433.58 50.3223 432.869 50.0943 432.607 49.5732L432.585 49.5307L431.882 47.9884C431.637 47.4612 431.933 46.8477 432.54 46.6219Z" fill="#BCBCBC"/>
<path d="M466.917 35.7006L466.346 35.5049C466.414 35.5431 466.485 35.5778 466.562 35.6042L467.577 35.9522C467.968 36.0863 468.413 36.0385 468.764 35.8246L470.654 34.672L470.852 34.0751C470.877 33.9998 470.782 33.9397 470.709 33.9845L468.104 35.5731C467.753 35.7869 467.308 35.8348 466.917 35.7006Z" fill="white"/>
<path d="M433.268 49.8255L433.245 49.783L432.543 48.2407C432.297 47.7128 432.593 47.0993 433.201 46.8737L461.661 36.0915C462.046 35.9509 462.31 35.6236 462.336 35.258L462.509 32.5294C462.549 32.3047 462.689 32.0989 462.905 31.9646L463.692 31.471C463.772 31.4208 463.861 31.3918 463.952 31.3861L467.951 31.1368L468.102 31.0375C468.202 30.9714 468.146 30.8321 468.022 30.8398L463.292 31.1347C463.201 31.1404 463.112 31.1694 463.032 31.2196L462.245 31.7132C462.029 31.8475 461.89 32.0531 461.849 32.278L461.676 35.0066C461.65 35.3724 461.387 35.6995 461.001 35.8401L432.541 46.6223C431.934 46.8479 431.637 47.4614 431.884 47.9893L432.586 49.5315L432.608 49.5741C432.78 49.9163 433.147 50.1281 433.548 50.1632C433.431 50.0716 433.335 49.9585 433.268 49.8255Z" fill="white"/>
<path d="M468.032 30.8397C468.148 30.8397 468.199 30.9734 468.101 31.0378L465.549 32.7197C465.178 32.964 464.982 33.3636 465.034 33.7652L465.124 34.4533C465.177 34.8602 465.478 35.205 465.908 35.3525L466.923 35.7003C467.069 35.7506 467.223 35.7752 467.377 35.7752C467.634 35.7752 467.89 35.7065 468.109 35.5728L470.712 33.9852C470.73 33.9744 470.749 33.9697 470.767 33.9697C470.824 33.9697 470.875 34.0183 470.856 34.0758L469.748 37.4143C469.724 37.4719 469.684 37.519 469.626 37.548L467.683 38.5611C467.534 38.6362 467.369 38.6767 467.203 38.6767C467.134 38.6767 467.065 38.6697 466.997 38.6554L463.797 38.0182C463.719 38.0044 463.643 37.9973 463.567 37.9973C463.474 37.9973 463.382 38.0084 463.291 38.0323C463.219 38.0455 463.157 38.0673 463.092 38.0946L434.183 50.0651C434.014 50.1374 433.836 50.1713 433.663 50.1713C433.218 50.1713 432.797 49.9481 432.608 49.5734L432.586 49.5308L431.884 47.9886C431.638 47.4608 431.934 46.8473 432.541 46.6217L461.001 35.8398C461.386 35.6992 461.65 35.3719 461.676 35.0064L461.849 32.2778C461.889 32.0531 462.029 31.8473 462.245 31.713L463.032 31.2195C463.112 31.1692 463.201 31.1402 463.292 31.1345L468.022 30.8397C468.025 30.8397 468.028 30.8397 468.032 30.8397ZM468.032 30.039C468.012 30.039 467.992 30.0395 467.971 30.0408L463.242 30.3357C463.019 30.3497 462.799 30.4209 462.607 30.5414L461.82 31.0349C461.42 31.2833 461.142 31.6852 461.061 32.1358L461.053 32.1812L461.05 32.2271L460.877 34.9557C460.875 34.9851 460.826 35.0514 460.726 35.0879L460.722 35.0896L460.717 35.0913L432.258 45.8731C431.742 46.065 431.328 46.4554 431.128 46.9422C430.942 47.3949 430.953 47.8867 431.158 48.3272L431.858 49.8628L431.867 49.8826L431.877 49.9018L431.896 49.94C432.215 50.5673 432.908 50.9724 433.663 50.9724C433.951 50.9724 434.23 50.9155 434.493 50.8034L463.398 38.8349C463.428 38.8226 463.436 38.8204 463.437 38.82L463.467 38.8144L463.496 38.8068C463.518 38.801 463.541 38.7982 463.567 38.7982C463.592 38.7982 463.621 38.8008 463.652 38.8059L466.841 39.4409C466.953 39.4646 467.078 39.4776 467.203 39.4776C467.491 39.4776 467.782 39.4081 468.043 39.2765L468.048 39.2738L468.053 39.2712L469.99 38.2609C470.216 38.1466 470.388 37.9609 470.487 37.7233L470.499 37.6952L470.508 37.6664L471.616 34.3279C471.704 34.0616 471.659 33.7669 471.495 33.5396C471.328 33.3076 471.056 33.169 470.767 33.169C470.601 33.169 470.438 33.2148 470.296 33.3014L467.692 34.8891C467.602 34.944 467.49 34.9744 467.378 34.9744C467.31 34.9744 467.244 34.9636 467.183 34.9427L466.168 34.5949C466.03 34.5475 465.932 34.4512 465.918 34.3496L465.829 33.6613C465.816 33.5668 465.878 33.4621 465.99 33.388L468.542 31.7061C468.881 31.4827 469.031 31.0745 468.916 30.69C468.799 30.3007 468.444 30.039 468.032 30.039Z" fill="#483E2E"/>
<path d="M435.172 48.4469L434.485 47.0519L460.331 37.0559L460.876 38.0389L435.172 48.4469Z" fill="#999999"/>
<path d="M464.037 38.919L464.97 38.2638L461.92 37.4893L462.69 38.5614L464.037 38.919Z" fill="#483E2E"/>
<path d="M466.532 35.564L463.858 34.6822L465.263 34.0891L466.125 34.4207L466.532 35.564Z" fill="#483E2E"/>
</g>
<mask id="mask4_61_767" style="mask-type:luminance" maskUnits="userSpaceOnUse" x="423" y="17" width="57" height="54">
<path d="M477.057 48.1668C477.057 60.5558 467.013 70.5993 454.624 70.5993C449.529 70.5993 444.83 68.9003 441.063 66.0378C440.707 65.767 437.878 66.9378 437.539 66.6467C432.747 62.5328 431.391 53.8041 431.391 53.8041C428.416 53.081 420.97 46.8549 425.029 39.4335C429.089 32.0117 450.008 17.2666 456.202 17.2666C460.848 17.2666 472.65 19.1597 476.23 23.9424C482.197 31.9136 477.057 40.4234 477.057 48.1668Z" fill="white"/>
</mask>
<g mask="url(#mask4_61_767)">
<path d="M460.463 41.6757C459.136 40.5874 458.634 35.4401 458.634 35.4401L457.542 35.5427C457.685 35.4576 457.825 35.3625 457.956 35.2512C458.657 34.6571 459.025 33.77 459.369 32.918C459.945 31.4891 461.266 31.2812 461.842 29.8524C462.218 28.9203 461.857 26.6942 461.634 25.7144C461.341 24.4254 460.087 23.586 458.844 23.1366C457.021 22.4777 453.766 22.0167 452.06 23.2538C451.45 23.6962 451.391 24.3595 451.336 25.0618C451.24 26.3037 451.048 27.1415 450.992 28.3855C450.922 29.9366 450.628 30.9398 450.596 32.4919C450.585 32.9965 450.985 34.7014 451.579 35.3618C452.139 35.9836 452.599 35.8235 453.429 35.9289C453.795 36.8371 452.865 40.2095 452.752 40.765C452.64 41.3205 449.712 43.7809 449.712 43.7809L450.25 48.2016L456.027 50.122L466.613 44.4409C466.613 44.4409 461.791 42.764 460.463 41.6757Z" fill="#F4B59C"/>
<path d="M455.079 22.4786C456.438 22.4786 457.853 22.7784 458.844 23.1367C460.087 23.5861 461.341 24.4254 461.634 25.7144C461.857 26.6943 462.218 28.9206 461.842 29.8524C461.266 31.2813 459.946 31.4892 459.369 32.918C459.026 33.77 458.657 34.6571 457.956 35.2512C457.825 35.3625 457.686 35.4576 457.542 35.5427L458.634 35.4402C458.634 35.4402 458.904 39.7841 460.232 40.8724C461.559 41.9607 464.744 44.1721 464.744 44.1721L456.028 50.1221L450.251 48.2017L450.143 43.1412C450.143 43.1412 453.17 41.4582 453.282 40.9027C453.395 40.3472 453.796 36.8374 453.429 35.9289C452.6 35.8235 452.14 35.9837 451.58 35.3619C450.985 34.7014 450.586 32.9966 450.597 32.4919C450.629 30.9398 450.923 29.9364 450.993 28.3856C451.049 27.1413 451.241 26.3035 451.337 25.0619C451.392 24.3595 451.451 23.6963 452.061 23.2538C452.839 22.6894 453.939 22.4784 455.079 22.4786ZM455.08 21.5509C453.586 21.5509 452.387 21.8712 451.516 22.5028C450.551 23.2025 450.471 24.2356 450.412 24.9901C450.371 25.5117 450.312 25.9704 450.254 26.4137C450.178 27.0004 450.099 27.6074 450.066 28.3439C450.035 29.0318 449.958 29.5993 449.877 30.2002C449.783 30.8872 449.687 31.5978 449.669 32.4727C449.656 33.0834 450.068 35.0695 450.89 35.9826C451.496 36.6557 452.118 36.7615 452.646 36.799C452.699 37.8057 452.533 39.7662 452.401 40.5643C452.044 40.9176 450.74 41.7475 449.692 42.3303L449.203 42.6019L449.215 43.1609L449.324 48.2215L449.338 48.8756L449.958 49.082L455.735 51.0024L456.171 51.1475L456.551 50.8883L465.267 44.9384L466.379 44.1787L465.273 43.4103C465.241 43.3882 462.103 41.2071 460.82 40.155C460.411 39.8195 459.727 38.0708 459.56 35.3828L459.523 34.7813C459.824 34.2705 460.04 33.7364 460.23 33.2654C460.434 32.7594 460.778 32.4629 461.212 32.0879C461.737 31.6354 462.331 31.1226 462.703 30.1998C463.253 28.837 462.663 26.053 462.539 25.5089C462.216 24.0877 461.016 22.9355 459.16 22.2644C457.924 21.8175 456.399 21.5509 455.08 21.5509Z" fill="#483E2E"/>
<path d="M464.727 27.6375C464.857 26.2498 464.815 24.8363 463.293 24.4673C462.279 20.409 457.629 19.869 455.453 20.04C451.373 20.3605 450.824 22.7873 450.824 22.7873C450.824 22.7873 451.508 22.6215 451.328 23.1456C451.031 24.0102 451.438 24.2699 451.388 24.4405C451.388 24.4405 453.821 23.1807 455.527 23.5438C457.234 23.9068 460.872 25.8482 460.034 25.8752C459.197 25.9021 458.708 26.3502 458.716 27.2879C458.72 27.7963 459.705 28.4181 458.951 29.5481C458.668 29.9733 458.294 29.9835 457.774 31.149C457.286 32.2428 458.387 33.1737 455.844 35.1984C455.181 35.7258 454.373 35.7151 453.192 35.4513C452.963 35.395 452.768 35.3324 452.636 35.291C451.307 34.8712 451.329 35.2582 451.58 35.3619C451.58 35.3619 451.701 35.546 452.459 36.2003C453.502 37.1018 455.099 37.1354 455.977 37.762C456.722 38.2929 457.664 40.3531 457.858 41.0812C458.133 42.1119 458.743 44.173 454.672 45.3448C454.672 45.3448 458.82 45.296 459.616 45.2571C462.999 45.0918 463.748 42.7269 464.036 42.3704C463.904 42.0805 460.757 41.0295 460.564 40.4995C460.125 39.2913 459.982 37.6276 459.887 37.1671C459.782 36.6552 460.262 33.6742 460.705 33.2279C460.878 33.0527 462.22 31.8173 462.951 30.9813C463.404 30.4635 464.547 29.5653 464.727 27.6375ZM461.198 29.6947C460.874 30.9996 459.576 31.3142 459.576 31.3142C460.009 30.9293 460.35 30.6326 460.556 30.1788C460.849 29.5317 460.983 28.9149 460.712 28.6505C460.506 28.4493 460.022 28.4916 459.874 28.3697C459.874 28.3697 460.329 28.0348 460.71 28.1873C461.366 28.45 461.447 28.691 461.198 29.6947Z" fill="#483E2E"/>
<path d="M456.647 28.3046C456.647 28.3046 456.16 28.5628 455.888 28.6631C455.617 28.7633 455.035 28.8813 454.902 28.9049C454.375 28.9987 453.985 28.7316 453.845 28.5739C453.706 28.4161 453.692 27.8633 453.643 27.8284C453.594 27.7935 453.308 27.4551 453.176 27.2823C453.176 27.2823 453.974 26.7717 454.329 26.6951C454.685 26.6186 456 27.0054 456.293 27.0885C456.586 27.1716 456.989 27.637 456.989 27.637C456.939 27.6403 456.403 27.5092 456.239 27.5114C456.075 27.5135 455.768 27.7012 455.768 27.7012C455.768 27.7012 455.965 27.7415 456.201 27.8657C456.64 28.0961 456.647 28.3046 456.647 28.3046Z" fill="#483E2E"/>
<path d="M452.397 31.0007C452.562 30.9892 452.807 31.2032 452.694 31.3247C452.633 31.3899 452.304 31.6609 451.925 31.5911C451.598 31.5309 451.213 31.1414 451.167 31.0393C451.091 30.874 452.232 31.0123 452.397 31.0007Z" fill="#483E2E"/>
<path d="M451.116 32.4667C451.116 32.4667 450.901 32.1754 451.064 31.9592C451.223 31.7467 451.505 32.1359 451.813 32.0017C452.171 31.8455 452.384 31.8874 452.771 32.1021C453.299 32.3955 453.694 32.5345 453.9 32.6307C453.9 32.6307 453.184 32.6591 452.519 32.6122C451.491 32.5397 451.116 32.4667 451.116 32.4667Z" fill="#483E2E"/>
<path d="M452.862 33.2741C452.942 33.3644 452.568 33.525 452.409 33.6182C452.25 33.7116 451.639 33.9044 451.682 33.4838C451.699 33.3182 451.561 33.2213 451.519 33.0295C451.515 33.0147 451.516 33.0001 451.515 32.9852C451.675 32.9582 452.15 33.0854 452.271 33.1142C452.565 33.1849 452.781 33.1838 452.862 33.2741Z" fill="#483E2E"/>
<path d="M450.987 28.0073C450.721 27.9569 450.56 27.75 450.56 27.75C450.715 27.7276 450.935 27.6881 450.94 27.567C450.932 27.3119 450.887 27.0637 450.818 26.8304C451.031 26.7514 452.41 27.1549 452.354 27.2738C452.179 27.6416 452.47 27.8426 452.095 28.1906C451.935 28.3389 451.548 28.484 451.244 28.5861C451.274 28.5259 451.297 28.4761 451.309 28.4467C451.394 28.2255 451.104 28.2276 450.987 28.0073Z" fill="#483E2E"/>
</g>
<mask id="mask5_61_767" style="mask-type:luminance" maskUnits="userSpaceOnUse" x="423" y="17" width="57" height="54">
<path d="M477.057 48.1668C477.057 60.5558 467.013 70.5993 454.624 70.5993C449.529 70.5993 444.83 68.9003 441.063 66.0378C440.707 65.767 437.878 66.9378 437.539 66.6467C432.747 62.5328 431.391 53.8041 431.391 53.8041C428.416 53.081 420.97 46.8549 425.029 39.4335C429.089 32.0117 450.008 17.2666 456.202 17.2666C460.848 17.2666 472.65 19.1597 476.23 23.9424C482.197 31.9136 477.057 40.4234 477.057 48.1668Z" fill="white"/>
</mask>
<g mask="url(#mask5_61_767)">
<path d="M467.345 57.718C467.338 57.552 467.462 57.3447 467.623 57.353C469.358 57.4407 471.56 56.4124 473.304 55.7646C473.024 53.1227 472.197 49.8241 471.716 48.6474C470.316 45.2222 468.96 43.9274 467.123 43.2139C465.656 42.644 461.532 40.4559 461.532 40.4559C461.532 40.4559 462.485 44.9707 455.861 44.9707C450.448 44.9707 451.036 41.287 451.036 41.287L445.992 44.6218C445.765 44.8116 445.543 45.0331 445.323 45.2842C444.994 45.661 444.672 46.1048 444.354 46.6101C444.249 46.7785 444.143 46.9537 444.038 47.1357C443.723 47.6813 441.32 52.6248 441.069 53.244C442.052 55.6152 444.212 57.4093 445.737 57.7479C446.428 57.0449 446.17 58.9356 446.365 58.5019C446.365 58.5019 445.295 76.7772 444.868 76.5073C444.865 76.6751 468.423 77.1492 468.423 77.1492C468.423 77.1492 467.5 61.7281 467.345 57.718Z" fill="#483E2E"/>
</g>
<mask id="mask6_61_767" style="mask-type:luminance" maskUnits="userSpaceOnUse" x="423" y="17" width="57" height="54">
<path d="M477.057 48.1668C477.057 60.5558 467.013 70.5993 454.624 70.5993C449.529 70.5993 444.83 68.9003 441.063 66.0378C440.707 65.767 437.878 66.9378 437.539 66.6467C432.747 62.5328 431.391 53.8041 431.391 53.8041C428.416 53.081 420.97 46.8549 425.029 39.4335C429.089 32.0117 450.008 17.2666 456.202 17.2666C460.848 17.2666 472.65 19.1597 476.23 23.9424C482.197 31.9136 477.057 40.4234 477.057 48.1668Z" fill="white"/>
</mask>
<g mask="url(#mask6_61_767)">
<path d="M433.021 42.8212C433.376 42.665 433.641 43.7223 433.873 44.3422C434.12 45.0017 434.862 45.2611 435.272 44.8616C435.272 44.8616 435.482 45.3148 436.202 45.159C436.938 45 437.309 44.4102 437.309 44.4102C437.309 44.4102 437.887 44.2627 438.29 44.0195C438.693 43.776 438.919 42.9266 438.919 42.9266C438.919 42.9266 439.239 43.0857 439.857 42.4765C440.465 41.8776 439.745 40.8637 438.948 40.6458C438.194 40.4396 437.156 40.6148 436.708 40.7682C436.264 40.92 435.645 40.9235 434.992 41.0413C434.354 41.1563 433.973 41.3863 433.479 41.7652C432.982 42.1468 433.021 42.8212 433.021 42.8212Z" fill="#4D66C4"/>
<path d="M438.15 40.5517C438.426 40.5517 438.703 40.5783 438.949 40.6457C439.746 40.8637 440.466 41.8776 439.858 42.4765C439.452 42.8768 439.175 42.9453 439.032 42.9453C438.958 42.9453 438.92 42.9266 438.92 42.9266C438.92 42.9266 438.776 43.3704 438.373 43.6138C438.246 43.6904 438.103 43.7168 437.967 43.7168C437.672 43.7168 437.408 43.5925 437.408 43.5925C437.408 43.5925 437.243 44.2697 436.507 44.4285C436.32 44.4392 436.16 44.4434 436.027 44.4434C435.626 44.4434 435.457 44.4071 435.457 44.4071C435.24 44.619 434.877 44.7732 434.548 44.7732C434.256 44.7732 433.99 44.6519 433.874 44.3421C433.658 43.7642 433.412 42.8057 433.093 42.8057C433.069 42.8057 433.046 42.8107 433.022 42.8212C433.022 42.8212 432.983 42.1468 433.48 41.7652C433.975 41.3862 434.355 41.1563 434.993 41.0413C435.646 40.9235 436.265 40.92 436.709 40.7681C437.011 40.6649 437.58 40.5517 438.15 40.5517ZM438.15 39.624C437.44 39.624 436.768 39.7676 436.408 39.8904C436.236 39.9495 435.946 39.9823 435.64 40.017C435.395 40.0447 435.117 40.0761 434.828 40.1282C434.022 40.2737 433.516 40.5685 432.916 41.0289C432.053 41.6906 432.089 42.7557 432.096 42.8751L432.174 44.2095L432.756 43.9527C432.796 44.0644 432.833 44.1752 432.862 44.259C432.911 44.4037 432.959 44.5435 433.005 44.6672C433.243 45.3049 433.834 45.7009 434.548 45.7009C434.95 45.7009 435.37 45.5772 435.723 45.3643C435.811 45.3684 435.911 45.3711 436.026 45.3711C436.192 45.3711 436.371 45.3656 436.56 45.3549L436.632 45.3508L436.703 45.3355C437.23 45.2216 437.609 44.9458 437.868 44.6421C437.901 44.6436 437.934 44.6445 437.967 44.6445C438.294 44.6445 438.592 44.5649 438.852 44.408C439.143 44.2324 439.353 44.0063 439.501 43.7969C439.835 43.6896 440.172 43.469 440.509 43.1373C440.951 42.7014 441.113 42.0979 440.952 41.4811C440.745 40.6889 440.022 39.9775 439.193 39.751C438.886 39.6666 438.535 39.624 438.15 39.624Z" fill="#483E2E"/>
<path d="M434.995 45.4955C435.675 44.3503 434.599 42.528 434.133 42.1019C434.133 42.1019 434.752 42.2289 435.18 42.768C435.636 43.3436 435.857 44.3932 436.246 44.4454C436.644 44.4988 437.097 44.4469 436.979 43.8253C436.866 43.2345 435.687 41.5626 435.687 41.5626C435.687 41.5626 436.199 41.6918 436.607 42.0701C437.036 42.4676 437.951 43.769 438.203 43.661C438.972 43.332 438.124 41.5371 437.146 41.1502C437.146 41.1502 437.791 41.0195 438.225 41.3089C438.605 41.5626 439.12 42.1242 439.26 42.2337C439.713 42.5876 440.256 42.2337 439.859 41.2582C439.634 40.3205 440.261 40.8799 440.261 40.8799C440.261 40.8799 440.994 41.4136 439.894 42.7346C438.739 44.1216 437.621 44.4284 437.621 44.4284L434.995 45.4955Z" fill="#483E2E"/>
</g>
<mask id="mask7_61_767" style="mask-type:luminance" maskUnits="userSpaceOnUse" x="423" y="17" width="57" height="54">
<path d="M477.057 48.1668C477.057 60.5558 467.013 70.5993 454.624 70.5993C449.529 70.5993 444.83 68.9003 441.063 66.0378C440.707 65.767 437.878 66.9378 437.539 66.6467C432.747 62.5328 431.391 53.8041 431.391 53.8041C428.416 53.081 420.97 46.8549 425.029 39.4335C429.089 32.0117 450.008 17.2666 456.202 17.2666C460.848 17.2666 472.65 19.1597 476.23 23.9424C482.197 31.9136 477.057 40.4234 477.057 48.1668Z" fill="white"/>
</mask>
<g mask="url(#mask7_61_767)">
<path d="M441.882 44.0976C441.686 44.2638 441.315 44.8738 440.948 45.1328C440.208 45.6534 439.3 46.398 438.596 46.7774C438.404 46.8813 435.192 48.7509 434.398 48.7236C434.591 49.2075 434.712 49.6399 434.667 49.9022C434.571 50.4703 435.628 51.3886 435.628 51.3886L436.392 50.1863C438.356 49.1069 440.316 50.6678 440.626 49.3314C440.939 47.9783 441.781 47.8771 442.507 46.9633C442.9 46.4683 443.616 44.3471 443.525 43.909C443.397 43.299 442.546 43.5316 441.882 44.0976Z" fill="#483E2E"/>
</g>
<mask id="mask8_61_767" style="mask-type:luminance" maskUnits="userSpaceOnUse" x="423" y="17" width="57" height="54">
<path d="M477.057 48.1668C477.057 60.5558 467.013 70.5993 454.624 70.5993C449.529 70.5993 444.83 68.9003 441.063 66.0378C440.707 65.767 437.878 66.9378 437.539 66.6467C432.747 62.5328 431.391 53.8041 431.391 53.8041C428.416 53.081 420.97 46.8549 425.029 39.4335C429.089 32.0117 450.008 17.2666 456.202 17.2666C460.848 17.2666 472.65 19.1597 476.23 23.9424C482.197 31.9136 477.057 40.4234 477.057 48.1668Z" fill="white"/>
</mask>
<g mask="url(#mask8_61_767)">
<path d="M441.486 58.5892C441.486 58.5892 440.884 53.5063 440.277 51.6647L441.36 51.4781C441.36 51.4781 441.776 53.1384 441.862 54.5191C442.025 57.1385 441.486 58.5892 441.486 58.5892Z" fill="#483E2E"/>
</g>
<mask id="mask9_61_767" style="mask-type:luminance" maskUnits="userSpaceOnUse" x="423" y="17" width="57" height="54">
<path d="M477.057 48.1668C477.057 60.5558 467.013 70.5993 454.624 70.5993C449.529 70.5993 444.83 68.9003 441.063 66.0378C440.707 65.767 437.878 66.9378 437.539 66.6467C432.747 62.5328 431.391 53.8041 431.391 53.8041C428.416 53.081 420.97 46.8549 425.029 39.4335C429.089 32.0117 450.008 17.2666 456.202 17.2666C460.848 17.2666 472.65 19.1597 476.23 23.9424C482.197 31.9136 477.057 40.4234 477.057 48.1668Z" fill="white"/>
</mask>
<g mask="url(#mask9_61_767)">
<path d="M436.588 50.3737C436.693 51.3391 438.109 54.1355 438.109 54.1355C438.109 54.1355 438.005 52.7706 438.005 51.7052C438.005 50.6399 437.961 49.7429 437.961 49.7429L436.588 50.3737Z" fill="#483E2E"/>
</g>
<mask id="mask10_61_767" style="mask-type:luminance" maskUnits="userSpaceOnUse" x="423" y="17" width="57" height="54">
<path d="M477.057 48.1668C477.057 60.5558 467.013 70.5993 454.624 70.5993C449.529 70.5993 444.83 68.9003 441.063 66.0378C440.707 65.767 437.878 66.9378 437.539 66.6467C432.747 62.5328 431.391 53.8041 431.391 53.8041C428.416 53.081 420.97 46.8549 425.029 39.4335C429.089 32.0117 450.008 17.2666 456.202 17.2666C460.848 17.2666 472.65 19.1597 476.23 23.9424C482.197 31.9136 477.057 40.4234 477.057 48.1668Z" fill="white"/>
</mask>
<g mask="url(#mask10_61_767)">
<path d="M450.067 43.301C449.589 43.8831 448.834 50.6246 448.638 52.5273C448.638 52.5273 449.405 53.0221 452.373 53.1783C454.244 53.2767 459.003 53.244 460.556 52.5698C460.556 52.5698 461.163 49.3988 462.09 47.0973C463.017 44.7957 463.782 42.5934 463.782 42.5934L465.608 43.1135C465.608 43.1135 464.837 45.4941 464.362 48.9097C463.922 52.0733 463.394 53.1221 464.766 55.1723C466.139 57.2225 467.919 58.6507 467.919 58.6507C467.919 58.6507 468.476 61.4131 468.788 64.0356C469.047 66.2145 469.319 71.8413 469.319 71.8413C469.319 71.8413 460.373 72.9239 455.445 72.6992C450.621 72.4795 444.909 72.2989 444.909 72.2989C444.909 72.2989 445.179 58.46 445.038 56.2819C444.897 54.1039 446.028 50.1841 446.957 47.9774C447.886 45.7705 448.289 43.8257 448.289 43.8257L450.067 43.301Z" fill="#4892EA"/>
</g>
<mask id="mask11_61_767" style="mask-type:luminance" maskUnits="userSpaceOnUse" x="423" y="17" width="57" height="54">
<path d="M477.057 48.1668C477.057 60.5558 467.013 70.5993 454.624 70.5993C449.529 70.5993 444.83 68.9003 441.063 66.0378C440.707 65.767 437.878 66.9378 437.539 66.6467C432.747 62.5328 431.391 53.8041 431.391 53.8041C428.416 53.081 420.97 46.8549 425.029 39.4335C429.089 32.0117 450.008 17.2666 456.202 17.2666C460.848 17.2666 472.65 19.1597 476.23 23.9424C482.197 31.9136 477.057 40.4234 477.057 48.1668Z" fill="white"/>
</mask>
<g mask="url(#mask11_61_767)">
<path d="M450.067 43.301C449.589 43.8831 448.834 50.6246 448.638 52.5273C448.638 52.5273 449.405 53.0221 452.373 53.1783C454.244 53.2767 459.003 53.244 460.556 52.5698C460.556 52.5698 461.163 49.3988 462.09 47.0973C463.017 44.7957 463.782 42.5934 463.782 42.5934L465.608 43.1135C465.608 43.1135 464.837 45.4941 464.362 48.9097C463.922 52.0733 463.394 53.1221 464.766 55.1723C466.139 57.2225 467.919 58.6507 467.919 58.6507C467.919 58.6507 468.476 61.4131 468.788 64.0356C469.047 66.2145 469.319 71.8413 469.319 71.8413C469.319 71.8413 460.373 72.9239 455.445 72.6992C450.621 72.4795 444.909 72.2989 444.909 72.2989C444.909 72.2989 445.179 58.46 445.038 56.2819C444.897 54.1039 446.028 50.1841 446.957 47.9774C447.886 45.7705 448.289 43.8257 448.289 43.8257L450.067 43.301Z" fill="#4892EA"/>
</g>
<mask id="mask12_61_767" style="mask-type:luminance" maskUnits="userSpaceOnUse" x="423" y="17" width="57" height="54">
<path d="M477.057 48.1668C477.057 60.5558 467.013 70.5993 454.624 70.5993C449.529 70.5993 444.83 68.9003 441.063 66.0378C440.707 65.767 437.878 66.9378 437.539 66.6467C432.747 62.5328 431.391 53.8041 431.391 53.8041C428.416 53.081 420.97 46.8549 425.029 39.4335C429.089 32.0117 450.008 17.2666 456.202 17.2666C460.848 17.2666 472.65 19.1597 476.23 23.9424C482.197 31.9136 477.057 40.4234 477.057 48.1668Z" fill="white"/>
</mask>
<g mask="url(#mask12_61_767)">
<path d="M448.383 53.2508C448.383 53.2508 449.159 53.9929 452.783 54.4657C454.95 54.7482 459.827 54.6217 461.38 53.9475C461.38 53.9475 462.331 50.2559 463.004 47.8675C463.646 45.591 464.283 44.4851 464.283 44.4851L465.421 44.4617C465.562 43.9475 465.608 43.1132 465.608 43.1132L463.782 42.593C463.782 42.593 463.017 44.7953 462.09 47.0969C461.164 49.3985 460.556 52.5695 460.556 52.5695C459.003 53.2436 454.244 53.2766 452.373 53.178C450.701 53.09 449.728 52.8946 449.196 52.7405C449.162 53.0534 448.404 53.0414 448.383 53.2508Z" fill="#4D66C4"/>
<path d="M445.402 72.3146C445.46 69.1096 445.63 59.1122 445.512 57.2884C445.371 55.1104 446.663 51.1234 447.368 48.8351C448.03 46.688 448.802 45.9115 448.802 45.9115L449.736 45.3508C449.866 44.6958 449.957 43.4354 450.067 43.301L448.289 43.8253C448.289 43.8253 447.53 45.7461 446.794 47.9857C446.046 50.2607 444.897 54.1037 445.038 56.2818C445.179 58.4598 444.909 72.2987 444.909 72.2987C444.909 72.2987 445.087 72.3042 445.402 72.3146Z" fill="#4D66C4"/>
</g>
<mask id="mask13_61_767" style="mask-type:luminance" maskUnits="userSpaceOnUse" x="423" y="17" width="57" height="54">
<path d="M477.057 48.1668C477.057 60.5558 467.013 70.5993 454.624 70.5993C449.529 70.5993 444.83 68.9003 441.063 66.0378C440.707 65.767 437.878 66.9378 437.539 66.6467C432.747 62.5328 431.391 53.8041 431.391 53.8041C428.416 53.081 420.97 46.8549 425.029 39.4335C429.089 32.0117 450.008 17.2666 456.202 17.2666C460.848 17.2666 472.65 19.1597 476.23 23.9424C482.197 31.9136 477.057 40.4234 477.057 48.1668Z" fill="white"/>
</mask>
<g mask="url(#mask13_61_767)">
<path d="M463.779 42.5932L465.605 43.1134C465.605 43.1134 464.834 45.4939 464.359 48.9095C463.919 52.0731 463.391 53.1219 464.763 55.1721C466.136 57.2223 467.916 58.6505 467.916 58.6505C467.916 58.6505 468.473 61.4129 468.785 64.0354C469.044 66.2143 469.316 71.8412 469.316 71.8412C469.316 71.8412 461.973 72.7298 456.927 72.7298C456.404 72.7298 455.905 72.7202 455.442 72.699C450.618 72.4793 444.906 72.2987 444.906 72.2987C444.906 72.2987 445.176 58.4598 445.035 56.2817C444.894 54.1037 446.084 50.2735 446.791 47.9857C447.452 45.846 448.41 44.1159 448.41 44.1159L449.948 43.2637C449.469 43.8458 448.576 51.3483 448.38 53.2508C448.38 53.2508 449.712 53.5923 452.679 53.7616C453.079 53.7845 453.615 53.7978 454.225 53.7978C456.447 53.7978 459.647 53.6208 460.808 53.0806C460.808 53.0806 461.464 50.1623 462.085 47.7601C462.724 45.2917 463.779 42.5932 463.779 42.5932ZM463.778 41.6653C463.405 41.6653 463.057 41.892 462.915 42.2553C462.871 42.3676 461.832 45.034 461.187 47.5278C460.721 49.3284 460.232 51.4373 460.016 52.3792C458.946 52.6742 456.699 52.8699 454.225 52.8699C453.654 52.8699 453.123 52.8574 452.732 52.8352C451.159 52.7455 450.06 52.6057 449.394 52.4994C449.737 49.4266 450.398 44.5479 450.722 43.7747C450.945 43.4367 450.925 42.9868 450.66 42.6696C450.479 42.4516 450.215 42.3356 449.947 42.3356C449.794 42.3356 449.639 42.3735 449.498 42.4518L447.96 43.304C447.808 43.3885 447.683 43.5137 447.598 43.6658C447.557 43.7397 446.586 45.5053 445.904 47.7113L445.887 47.7673C445.119 50.2533 443.958 54.0101 444.109 56.3409C444.246 58.4557 443.981 72.142 443.979 72.2799C443.969 72.7878 444.369 73.2091 444.877 73.2253C444.934 73.227 450.638 73.4081 455.4 73.6252C455.86 73.6461 456.374 73.6568 456.927 73.6568C461.971 73.6568 469.125 72.7981 469.427 72.7614C469.91 72.703 470.266 72.2814 470.242 71.7956C470.231 71.5645 469.966 66.1111 469.706 63.9252C469.394 61.2957 468.849 58.5807 468.826 58.4664C468.783 58.2532 468.666 58.0621 468.497 57.9262C468.481 57.9133 466.806 56.5543 465.534 54.6552C464.603 53.2641 464.715 52.5745 465.048 50.5271C465.119 50.0901 465.2 49.595 465.278 49.0365C465.736 45.7398 466.48 43.4214 466.487 43.3985C466.565 43.159 466.542 42.8982 466.423 42.6761C466.305 42.454 466.101 42.2895 465.859 42.2206L464.033 41.7002C463.948 41.6769 463.863 41.6653 463.778 41.6653Z" fill="#483E2E"/>
</g>
<mask id="mask14_61_767" style="mask-type:luminance" maskUnits="userSpaceOnUse" x="423" y="17" width="57" height="54">
<path d="M477.057 48.1668C477.057 60.5558 467.013 70.5993 454.624 70.5993C449.529 70.5993 444.83 68.9003 441.063 66.0378C440.707 65.767 437.878 66.9378 437.539 66.6467C432.747 62.5328 431.391 53.8041 431.391 53.8041C428.416 53.081 420.97 46.8549 425.029 39.4335C429.089 32.0117 450.008 17.2666 456.202 17.2666C460.848 17.2666 472.65 19.1597 476.23 23.9424C482.197 31.9136 477.057 40.4234 477.057 48.1668Z" fill="white"/>
</mask>
<g mask="url(#mask14_61_767)">
<path d="M466.249 56.3699L466.168 61.9166C466.168 61.9166 464.796 65.5484 464.07 69.9873C463.484 73.5674 463.183 75.5358 463.183 75.5358L465.765 77.6543C465.765 77.6543 470.122 66.3555 470.606 64.4386C471.09 62.5216 471.413 61.1094 471.494 59.1927C471.55 57.852 471.519 56.5477 471.495 55.8836C469.755 56.1484 468.01 56.3267 466.249 56.3699Z" fill="#F4B59C"/>
</g>
<mask id="mask15_61_767" style="mask-type:luminance" maskUnits="userSpaceOnUse" x="423" y="17" width="57" height="54">
<path d="M477.057 48.1668C477.057 60.5558 467.013 70.5993 454.624 70.5993C449.529 70.5993 444.83 68.9003 441.063 66.0378C440.707 65.767 437.878 66.9378 437.539 66.6467C432.747 62.5328 431.391 53.8041 431.391 53.8041C428.416 53.081 420.97 46.8549 425.029 39.4335C429.089 32.0117 450.008 17.2666 456.202 17.2666C460.848 17.2666 472.65 19.1597 476.23 23.9424C482.197 31.9136 477.057 40.4234 477.057 48.1668Z" fill="white"/>
</mask>
<g mask="url(#mask15_61_767)">
<path d="M471.497 56.4475C471.497 56.4475 471.574 57.2762 471.493 59.1929C471.413 61.1096 471.09 62.5221 470.606 64.4388C470.122 66.3555 465.765 77.6545 465.765 77.6545L463.182 75.536C463.182 75.536 463.484 73.5674 464.07 69.9875C464.796 65.5486 466.168 61.9168 466.168 61.9168L466.205 56.8669C466.205 56.8669 469.964 56.8512 471.497 56.4475ZM472.32 55.2718L471.261 55.5504C470.098 55.8565 467.214 55.9348 466.201 55.939L465.284 55.9429L465.277 56.8599L465.242 61.748C464.965 62.509 463.811 65.8284 463.155 69.8376C462.575 73.3813 462.269 75.3756 462.266 75.3953L462.186 75.9178L462.594 76.2531L465.176 78.3717L466.169 79.1857L466.63 77.9883C466.809 77.5249 471.014 66.6147 471.506 64.6661C471.988 62.7571 472.336 61.2497 472.421 59.2319C472.503 57.2751 472.425 56.398 472.421 56.3616L472.32 55.2718Z" fill="#483E2E"/>
</g>
<mask id="mask16_61_767" style="mask-type:luminance" maskUnits="userSpaceOnUse" x="423" y="17" width="57" height="54">
<path d="M477.057 48.1668C477.057 60.5558 467.013 70.5993 454.624 70.5993C449.529 70.5993 444.83 68.9003 441.063 66.0378C440.707 65.767 437.878 66.9378 437.539 66.6467C432.747 62.5328 431.391 53.8041 431.391 53.8041C428.416 53.081 420.97 46.8549 425.029 39.4335C429.089 32.0117 450.008 17.2666 456.202 17.2666C460.848 17.2666 472.65 19.1597 476.23 23.9424C482.197 31.9136 477.057 40.4234 477.057 48.1668Z" fill="white"/>
</mask>
<g mask="url(#mask16_61_767)">
<path d="M464.513 67.7638C465.815 62.893 466.67 61.5545 467.6 59.7324C467.6 59.7324 466.132 60.6305 465.31 62.0903C464.489 63.5501 463.621 68.3959 463.621 68.3959L464.513 67.7638Z" fill="#483E2E"/>
</g>
<mask id="mask17_61_767" style="mask-type:luminance" maskUnits="userSpaceOnUse" x="423" y="17" width="57" height="54">
<path d="M477.057 48.1668C477.057 60.5558 467.013 70.5993 454.624 70.5993C449.529 70.5993 444.83 68.9003 441.063 66.0378C440.707 65.767 437.878 66.9378 437.539 66.6467C432.747 62.5328 431.391 53.8041 431.391 53.8041C428.416 53.081 420.97 46.8549 425.029 39.4335C429.089 32.0117 450.008 17.2666 456.202 17.2666C460.848 17.2666 472.65 19.1597 476.23 23.9424C482.197 31.9136 477.057 40.4234 477.057 48.1668Z" fill="white"/>
</mask>
<g mask="url(#mask17_61_767)">
<path d="M449.008 56.4698L460.397 56.665L460.181 58.9568L454.032 60.4884L448.806 58.6596L449.008 56.4698Z" fill="#4D66C4"/>
</g>
<mask id="mask18_61_767" style="mask-type:luminance" maskUnits="userSpaceOnUse" x="423" y="17" width="57" height="54">
<path d="M477.057 48.1668C477.057 60.5558 467.013 70.5993 454.624 70.5993C449.529 70.5993 444.83 68.9003 441.063 66.0378C440.707 65.767 437.878 66.9378 437.539 66.6467C432.747 62.5328 431.391 53.8041 431.391 53.8041C428.416 53.081 420.97 46.8549 425.029 39.4335C429.089 32.0117 450.008 17.2666 456.202 17.2666C460.848 17.2666 472.65 19.1597 476.23 23.9424C482.197 31.9136 477.057 40.4234 477.057 48.1668Z" fill="white"/>
</mask>
<g mask="url(#mask18_61_767)">
<path d="M453.947 36.9041C454.315 37.3497 455.285 38.6053 455.505 39.5565C455.505 39.5565 455.689 39.0246 455.713 38.1113C455.736 37.2268 455.51 36.6986 455.51 36.6986L453.947 36.9041Z" fill="#483E2E"/>
</g>
<defs>
<linearGradient id="paint0_linear_61_767" x1="454.318" y1="21.6234" x2="454.318" y2="90" gradientUnits="userSpaceOnUse">
<stop stop-color="#DD3E34"/>
<stop offset="1" stop-color="#95251E"/>
</linearGradient>
</defs>
</svg>
